<svg xmlns="http://www.w3.org/2000/svg" viewBox="0 0 150.9 116.95">
    <defs>
        <style>.cls-1{fill:#7b8638;}</style>
    </defs>
    <g id="Layer_2" data-name="Layer 2">
        <g id="Layer_1-2" data-name="Layer 1">
            <path class="cls-1" d="M61.08,11.86Q33.77,42.4,33.77,68.26,49.22,74.38,49.22,90.9a27.68,27.68,0,0,1-6.47,18.23q-6.47,7.82-19.22,7.82a20.53,20.53,0,0,1-17-8.45Q0,100.07,0,88A86.47,86.47,0,0,1,12.4,43.2Q24.79,22.28,50.3,0Zm89.82,0q-27.32,30.54-27.31,56.4Q139,74.38,139,90.9a27.68,27.68,0,0,1-6.47,18.23q-6.47,7.82-19.22,7.82a20.53,20.53,0,0,1-17-8.45Q89.81,100.07,89.82,88a86.47,86.47,0,0,1,12.4-44.82Q114.61,22.28,140.12,0Z"/>
        </g>
    </g>
</svg>
